<?xml version="1.0" standalone="no"?>
<svg xmlns:xlink="http://www.w3.org/1999/xlink" id="wave" style="transform:rotate(0deg); transition: 0.3s" viewBox="0 0 1440 490" version="1.1" xmlns="http://www.w3.org/2000/svg"><defs><linearGradient id="sw-gradient-0" x1="0" x2="0" y1="1" y2="0"><stop stop-color="rgba(106, 26, 244, 1)" offset="0%"/><stop stop-color="rgba(223, 206, 253, 1)" offset="100%"/></linearGradient></defs><path style="transform:translate(0, 0px); opacity:1" fill="url(#sw-gradient-0)" d="M0,441L120,383.8C240,327,480,212,720,147C960,82,1200,65,1440,106.2C1680,147,1920,245,2160,277.7C2400,310,2640,278,2880,220.5C3120,163,3360,82,3600,49C3840,16,4080,33,4320,106.2C4560,180,4800,310,5040,326.7C5280,343,5520,245,5760,245C6000,245,6240,343,6480,375.7C6720,408,6960,376,7200,334.8C7440,294,7680,245,7920,220.5C8160,196,8400,196,8640,196C8880,196,9120,196,9360,204.2C9600,212,9840,229,10080,236.8C10320,245,10560,245,10800,253.2C11040,261,11280,278,11520,236.8C11760,196,12000,98,12240,122.5C12480,147,12720,294,12960,318.5C13200,343,13440,245,13680,187.8C13920,131,14160,114,14400,163.3C14640,212,14880,327,15120,383.8C15360,441,15600,441,15840,375.7C16080,310,16320,180,16560,163.3C16800,147,17040,245,17160,294L17280,343L17280,490L17160,490C17040,490,16800,490,16560,490C16320,490,16080,490,15840,490C15600,490,15360,490,15120,490C14880,490,14640,490,14400,490C14160,490,13920,490,13680,490C13440,490,13200,490,12960,490C12720,490,12480,490,12240,490C12000,490,11760,490,11520,490C11280,490,11040,490,10800,490C10560,490,10320,490,10080,490C9840,490,9600,490,9360,490C9120,490,8880,490,8640,490C8400,490,8160,490,7920,490C7680,490,7440,490,7200,490C6960,490,6720,490,6480,490C6240,490,6000,490,5760,490C5520,490,5280,490,5040,490C4800,490,4560,490,4320,490C4080,490,3840,490,3600,490C3360,490,3120,490,2880,490C2640,490,2400,490,2160,490C1920,490,1680,490,1440,490C1200,490,960,490,720,490C480,490,240,490,120,490L0,490Z"/></svg>